<svg width="895" height="324" viewBox="0 0 895 324" fill="none" xmlns="http://www.w3.org/2000/svg">
<path d="M591.5 137.5C591.5 213.114 523.275 274.5 439 274.5C354.725 274.5 286.5 213.114 286.5 137.5C286.5 61.8859 354.725 0.5 439 0.5C523.275 0.5 591.5 61.8859 591.5 137.5Z" stroke="url(#paint0_linear_163_90)"/>
<path d="M880.5 189.5C880.5 207.832 868.33 225.393 846.091 241.448C823.862 257.494 791.665 271.966 751.835 284.128C672.179 308.449 562.105 323.5 440.5 323.5C318.895 323.5 208.821 308.449 129.165 284.128C89.3346 271.966 57.1376 257.494 34.9093 241.448C12.6695 225.393 0.5 207.832 0.5 189.5C0.5 171.168 12.6695 153.607 34.9093 137.552C57.1376 121.506 89.3346 107.034 129.165 94.8723C208.821 70.5507 318.895 55.5 440.5 55.5C562.105 55.5 672.179 70.5507 751.835 94.8723C791.665 107.034 823.862 121.506 846.091 137.552C868.33 153.607 880.5 171.168 880.5 189.5Z" stroke="url(#paint1_linear_163_90)"/>
<path d="M826.5 189.5C826.5 207.863 815.931 225.427 796.661 241.469C777.393 257.509 749.482 271.975 714.949 284.134C645.886 308.451 550.445 323.5 445 323.5C339.555 323.5 244.114 308.451 175.051 284.134C140.518 271.975 112.607 257.509 93.3393 241.469C74.0687 225.427 63.5 207.863 63.5 189.5C63.5 171.137 74.0687 153.573 93.3393 137.531C112.607 121.491 140.518 107.025 175.051 94.8658C244.114 70.5493 339.555 55.5 445 55.5C550.445 55.5 645.886 70.5493 714.949 94.8658C749.482 107.025 777.393 121.491 796.661 137.531C815.931 153.573 826.5 171.137 826.5 189.5Z" stroke="url(#paint2_linear_163_90)"/>
<path d="M802.5 189.5C802.5 207.882 792.877 225.45 775.354 241.485C757.831 257.52 732.448 271.983 701.039 284.14C638.225 308.452 551.414 323.5 455.5 323.5C359.586 323.5 272.775 308.452 209.961 284.14C178.552 271.983 153.169 257.52 135.646 241.485C118.123 225.45 108.5 207.882 108.5 189.5C108.5 171.118 118.123 153.55 135.646 137.515C153.169 121.48 178.552 107.017 209.961 94.8604C272.775 70.5481 359.586 55.5 455.5 55.5C551.414 55.5 638.225 70.5481 701.039 94.8604C732.448 107.017 757.831 121.48 775.354 137.515C792.877 153.55 802.5 171.118 802.5 189.5Z" stroke="url(#paint3_linear_163_90)"/>
<path d="M853.093 143.749C853.093 142.196 851.426 140.725 848.87 139.813C849.46 136.776 849.198 134.358 848.043 133.584C847.763 133.401 847.446 133.309 847.125 133.317V134.382C847.314 134.382 847.465 134.426 847.593 134.507C848.149 134.88 848.391 136.297 848.203 138.122C848.158 138.571 848.084 139.044 847.994 139.526C847.138 139.285 846.269 139.112 845.393 139.006C844.872 138.166 844.302 137.368 843.69 136.617C845.025 135.17 846.278 134.378 847.131 134.378V133.312C846.004 133.312 844.529 134.249 843.038 135.872C841.548 134.26 840.073 133.332 838.947 133.332V134.396C839.795 134.396 841.052 135.185 842.388 136.622C841.814 137.325 841.241 138.122 840.696 139.006C839.818 139.11 838.948 139.286 838.091 139.531C838.001 139.074 837.929 138.612 837.878 138.146C837.685 136.321 837.923 134.903 838.476 134.526C838.598 134.44 838.758 134.401 838.947 134.401V133.337C838.603 133.337 838.291 133.423 838.022 133.603C836.87 134.378 836.613 136.789 837.206 139.818C834.659 140.736 833 142.201 833 143.749C833 145.301 834.667 146.772 837.223 147.683C836.633 150.722 836.895 153.139 838.05 153.912C838.316 154.094 838.628 154.18 838.971 154.18C840.098 154.18 841.572 153.244 843.063 151.62C844.554 153.234 846.028 154.16 847.155 154.16C847.478 154.168 847.797 154.076 848.08 153.893C849.231 153.12 849.489 150.708 848.895 147.679C851.435 146.767 853.093 145.296 853.093 143.749ZM847.76 140.563C847.601 141.201 847.417 141.831 847.208 142.449C846.865 141.673 846.489 140.917 846.081 140.185C846.663 140.286 847.224 140.41 847.761 140.563H847.76ZM845.885 145.65C845.578 146.274 845.249 146.883 844.898 147.474C843.669 147.601 842.433 147.602 841.204 147.479C840.499 146.305 839.882 145.062 839.361 143.763C839.882 142.462 840.495 141.214 841.196 140.034C842.425 139.907 843.66 139.905 844.889 140.028C845.229 140.596 845.562 141.203 845.881 141.844C846.192 142.469 846.475 143.103 846.733 143.744C846.472 144.392 846.189 145.028 845.885 145.65V145.65ZM847.208 145.029C847.429 145.668 847.618 146.309 847.773 146.93C847.237 147.083 846.671 147.212 846.086 147.311C846.492 146.573 846.866 145.811 847.208 145.029V145.029ZM843.055 150.125C842.674 149.666 842.293 149.156 841.916 148.596C842.285 148.616 842.661 148.63 843.042 148.63C843.428 148.63 843.808 148.621 844.181 148.596C843.813 149.156 843.432 149.666 843.055 150.125ZM840.007 147.311C839.443 147.216 838.883 147.09 838.328 146.934C838.48 146.318 838.668 145.683 838.881 145.048C839.049 145.429 839.226 145.812 839.418 146.194C839.611 146.576 839.807 146.949 840.007 147.311ZM843.034 137.372C843.415 137.831 843.796 138.342 844.173 138.901C843.804 138.882 843.428 138.867 843.047 138.867C842.661 138.867 842.281 138.877 841.908 138.901C842.276 138.342 842.657 137.831 843.034 137.372ZM840.003 140.186C839.597 140.923 839.223 141.683 838.881 142.464C838.666 141.841 838.478 141.207 838.316 140.563C838.852 140.414 839.418 140.286 840.003 140.186ZM836.297 146.165C834.847 145.445 833.909 144.498 833.909 143.749C833.909 142.999 834.847 142.048 836.297 141.332C836.649 141.155 837.034 140.997 837.431 140.85C837.665 141.785 837.972 142.76 838.352 143.758C837.993 144.698 837.69 145.665 837.444 146.652C837.055 146.512 836.672 146.349 836.297 146.165V146.165ZM838.5 152.99C837.944 152.619 837.702 151.199 837.89 149.375C837.935 148.926 838.009 148.453 838.099 147.97C838.902 148.2 839.778 148.377 840.7 148.492C841.222 149.331 841.791 150.129 842.404 150.88C841.068 152.327 839.815 153.12 838.963 153.12C838.802 153.122 838.643 153.077 838.5 152.991V152.99ZM848.216 149.351C848.408 151.176 848.17 152.594 847.617 152.971C847.495 153.057 847.335 153.095 847.146 153.095C846.298 153.095 845.041 152.307 843.705 150.869C844.316 150.121 844.881 149.325 845.397 148.487C846.275 148.382 847.145 148.206 848.002 147.962C848.097 148.444 848.169 148.907 848.216 149.351V149.351ZM849.792 146.165C849.44 146.342 849.055 146.5 848.658 146.647C848.407 145.655 848.1 144.683 847.737 143.739C848.113 142.746 848.416 141.776 848.645 140.845C849.035 140.986 849.419 141.148 849.796 141.332C851.246 142.053 852.184 142.999 852.184 143.749C852.18 144.498 851.242 145.449 849.792 146.165V146.165Z" fill="url(#paint4_linear_163_90)"/>
<path d="M843.042 145.931C843.539 145.931 844.015 145.701 844.366 145.292C844.717 144.882 844.914 144.327 844.914 143.748C844.914 143.169 844.717 142.614 844.366 142.204C844.015 141.795 843.539 141.565 843.042 141.565C842.546 141.565 842.07 141.795 841.719 142.204C841.368 142.614 841.17 143.169 841.17 143.748C841.17 144.327 841.368 144.882 841.719 145.292C842.07 145.701 842.546 145.931 843.042 145.931V145.931Z" fill="url(#paint5_linear_163_90)"/>
<path d="M782.607 102.991H772.393C771.624 102.991 771 103.719 771 104.616V116.527C771 117.424 771.624 118.152 772.393 118.152H782.607C783.376 118.152 784 117.424 784 116.527V104.616C784 103.719 783.376 102.991 782.607 102.991ZM778.075 114.815C778.075 116.29 777.332 116.964 776.249 116.964C775.271 116.964 774.706 116.375 774.415 115.661L775.411 114.96C775.602 115.356 775.776 115.691 776.197 115.691C776.598 115.691 776.853 115.509 776.853 114.795V109.952H778.075V114.815V114.815ZM780.965 116.964C779.83 116.964 779.096 116.334 778.739 115.509L779.734 114.839C779.996 115.336 780.338 115.705 780.939 115.705C781.444 115.705 781.769 115.411 781.769 115.001C781.769 114.514 781.438 114.341 780.878 114.054L780.573 113.901C779.691 113.465 779.108 112.913 779.108 111.752C779.108 110.683 779.807 109.871 780.895 109.871C781.673 109.871 782.23 110.186 782.63 111.011L781.679 111.722C781.47 111.285 781.243 111.113 780.892 111.113C780.535 111.113 780.309 111.377 780.309 111.722C780.309 112.148 780.535 112.321 781.06 112.588L781.365 112.741C782.404 113.258 782.987 113.79 782.987 114.981C782.987 116.26 782.123 116.964 780.965 116.964V116.964Z" fill="url(#paint6_linear_163_90)"/>
<path d="M886.996 207.948C886.756 207.948 886.513 207.869 886.302 207.72L884.092 206.115C883.763 205.886 883.924 205.807 884.031 205.763C884.472 205.574 884.561 205.535 885.03 205.205C885.081 205.17 885.145 205.183 885.195 205.222L886.893 206.458C886.953 206.502 887.039 206.502 887.097 206.458L893.711 201.771C893.772 201.727 893.811 201.639 893.811 201.551V192.177C893.811 192.085 893.772 192.001 893.707 191.953L887.097 187.271C887.036 187.227 886.953 187.227 886.893 187.271L880.286 191.957C880.221 192.001 880.182 192.089 880.182 192.182V201.551C880.182 201.639 880.221 201.727 880.286 201.767L882.098 203.05C883.082 203.653 883.684 202.945 883.684 202.228V192.978C883.684 192.846 883.77 192.744 883.877 192.744H884.715C884.819 192.744 884.909 192.846 884.909 192.978V202.233C884.909 203.842 884.192 204.765 882.95 204.765C882.567 204.765 882.266 204.765 881.428 204.255L879.695 203.028C879.265 202.725 879 202.158 879 201.547V192.177C879 191.571 879.265 190.999 879.695 190.696L886.302 186.009C886.721 185.718 887.276 185.718 887.691 186.009L894.305 190.7C894.735 191.003 895 191.571 895 192.182V201.551C895 202.158 894.735 202.725 894.305 203.033L887.691 207.72C887.48 207.869 887.24 207.948 886.996 207.948ZM892.336 198.711C892.336 196.957 891.369 196.491 889.338 196.161C887.283 195.827 887.075 195.655 887.075 195.066C887.075 194.578 887.251 193.927 888.773 193.927C890.13 193.927 890.631 194.288 890.839 195.413C890.857 195.519 890.936 195.598 891.025 195.598H891.885C891.938 195.598 891.988 195.572 892.024 195.523C892.06 195.475 892.078 195.409 892.074 195.343C891.942 193.404 890.893 192.503 888.773 192.503C886.885 192.503 885.761 193.479 885.761 195.119C885.761 196.895 886.882 197.387 888.69 197.607C890.857 197.867 891.025 198.258 891.025 198.781C891.025 199.687 890.431 200.074 889.038 200.074C887.286 200.074 886.903 199.533 886.774 198.465C886.76 198.35 886.681 198.267 886.585 198.267H885.729C885.621 198.267 885.539 198.372 885.539 198.5C885.539 199.867 886.144 201.498 889.041 201.498C891.132 201.494 892.336 200.478 892.336 198.711V198.711Z" fill="url(#paint7_linear_163_90)"/>
<path fill-rule="evenodd" clip-rule="evenodd" d="M769.035 273.254C767.353 273.254 766 274.9 766 276.916C766 278.142 766.501 279.231 767.27 279.896C766.873 280.242 766.552 280.692 766.331 281.209C766.111 281.727 765.997 282.297 766 282.875C766 284.101 766.501 285.189 767.27 285.854C766.873 286.201 766.552 286.65 766.331 287.168C766.111 287.685 765.997 288.256 766 288.833C766 290.85 767.353 292.496 769.035 292.496C770.717 292.496 772.071 290.85 772.071 288.833V285.737C772.602 286.254 773.272 286.537 773.965 286.538C775.647 286.537 777 284.891 777 282.875C777.003 282.297 776.889 281.727 776.669 281.209C776.448 280.692 776.127 280.242 775.73 279.896C776.127 279.549 776.448 279.099 776.669 278.582C776.889 278.064 777.003 277.494 777 276.916C777 274.9 775.647 273.254 773.965 273.254H769.035V273.254ZM767.141 276.916C767.141 275.641 767.994 274.619 769.035 274.619H770.929V279.213H769.035C767.994 279.213 767.141 278.191 767.141 276.916V276.916ZM773.965 279.212H772.071V274.618H773.965C775.006 274.618 775.859 275.641 775.859 276.916C775.859 278.191 775.006 279.212 773.965 279.212ZM767.141 282.875C767.141 281.6 767.995 280.578 769.036 280.578H770.93V285.172H769.035C767.994 285.172 767.141 284.15 767.141 282.875H767.141ZM772.071 282.875C772.071 281.6 772.924 280.578 773.965 280.578C775.007 280.578 775.86 281.599 775.86 282.875C775.86 284.15 775.007 285.172 773.965 285.172C772.924 285.172 772.071 284.15 772.071 282.875H772.071ZM767.141 288.833C767.141 287.559 767.995 286.537 769.036 286.537H770.93V288.833C770.93 290.109 770.078 291.13 769.036 291.13C767.995 291.13 767.141 290.109 767.141 288.833Z" fill="url(#paint8_linear_163_90)"/>
<path d="M837.334 205.615H828.256C827.01 205.615 826 206.793 826 208.246V218.437C826 219.89 827.01 221.068 828.256 221.068H837.334C838.58 221.068 839.591 219.89 839.591 218.437V208.246C839.591 206.793 838.58 205.615 837.334 205.615Z" fill="url(#paint9_linear_163_90)"/>
<path d="M833.144 209.68L831.449 212.944L833.263 216.41C833.275 216.434 833.278 216.463 833.272 216.49C833.269 216.501 833.263 216.504 833.254 216.505L833.244 216.504L833.231 216.504C833.224 216.504 833.217 216.504 833.208 216.506H831.9L831.875 216.506C831.804 216.503 831.753 216.492 831.722 216.431C831.601 216.156 831.48 215.882 831.358 215.607C831.248 215.363 831.136 215.12 831.021 214.879L830.97 214.773C830.832 214.487 830.697 214.2 830.564 213.912H830.555C830.433 214.197 830.307 214.481 830.177 214.762C830.046 215.046 829.917 215.328 829.789 215.607C829.662 215.888 829.531 216.166 829.397 216.442C829.376 216.498 829.34 216.51 829.29 216.512L829.27 216.512H828.021L828.015 216.513L827.997 216.514C827.988 216.515 827.982 216.513 827.98 216.495C827.976 216.469 827.981 216.443 827.993 216.421L829.753 213.05L828.039 209.669C828.021 209.641 828.018 209.618 828.03 209.6C828.037 209.591 828.045 209.584 828.054 209.58C828.064 209.575 828.074 209.573 828.085 209.574H829.37C829.398 209.572 829.426 209.577 829.452 209.59C829.474 209.604 829.493 209.624 829.507 209.648C829.616 209.932 829.738 210.215 829.872 210.499C830.004 210.78 830.139 211.06 830.277 211.339C830.413 211.613 830.539 211.893 830.656 212.179H830.665C830.784 211.893 830.907 211.609 831.034 211.328C831.158 211.052 831.286 210.773 831.417 210.493C831.546 210.217 831.672 209.939 831.795 209.659C831.802 209.633 831.815 209.609 831.832 209.59C831.854 209.576 831.879 209.571 831.905 209.574H833.099C833.11 209.571 833.121 209.572 833.132 209.577C833.142 209.582 833.151 209.591 833.157 209.602C833.162 209.614 833.165 209.627 833.163 209.64C833.162 209.653 833.157 209.665 833.149 209.675L833.145 209.68L833.144 209.68ZM835.824 216.643L835.761 216.644C835.341 216.651 834.926 216.55 834.544 216.346C834.188 216.154 833.891 215.841 833.691 215.448C833.49 215.058 833.387 214.572 833.382 213.991L833.381 213.944C833.378 213.456 833.485 212.975 833.691 212.551C833.898 212.131 834.199 211.785 834.563 211.55L834.594 211.53C834.989 211.275 835.466 211.147 836.025 211.147L836.05 211.148L836.078 211.149L836.109 211.15L836.144 211.153L836.202 211.157L836.269 211.164L836.317 211.169V209.074C836.317 209.024 836.335 209 836.372 209H837.521C837.528 208.998 837.536 208.999 837.543 209.002C837.55 209.005 837.556 209.009 837.562 209.016C837.567 209.022 837.571 209.029 837.573 209.038C837.576 209.046 837.576 209.055 837.575 209.063V215.347C837.575 215.452 837.579 215.566 837.586 215.688L837.603 215.964L837.612 216.123C837.613 216.145 837.608 216.167 837.598 216.186C837.589 216.205 837.574 216.22 837.557 216.229C837.261 216.374 836.952 216.48 836.636 216.548C836.368 216.606 836.096 216.638 835.824 216.643V216.643ZM836.317 215.326V212.423C836.268 212.408 836.218 212.397 836.167 212.391C836.105 212.384 836.042 212.38 835.98 212.381C835.759 212.378 835.54 212.436 835.342 212.551C835.148 212.663 834.984 212.831 834.863 213.04C834.743 213.245 834.68 213.513 834.676 213.844L834.676 213.88C834.672 214.111 834.704 214.342 834.772 214.56C834.827 214.736 834.914 214.895 835.027 215.028C835.135 215.15 835.266 215.241 835.41 215.294C835.562 215.351 835.72 215.38 835.879 215.379C835.965 215.379 836.044 215.375 836.117 215.368C836.175 215.363 836.232 215.352 836.289 215.335L836.317 215.326V215.326Z" fill="black"/>
<path d="M723.624 116.445C724.693 115.729 725.759 115.007 726.831 114.299C727.849 113.626 729.046 114.246 729.277 115.555C729.41 116.312 729.121 117.13 728.535 117.528C726.613 118.834 724.689 120.135 722.755 121.416C722.156 121.812 721.54 121.739 720.994 121.253C720.44 120.76 720.265 120.08 720.395 119.288C720.544 118.686 720.883 118.283 721.346 117.981C722.112 117.483 722.865 116.958 723.624 116.445" fill="url(#paint10_linear_163_90)"/>
<path d="M724.409 115.925C723.343 115.203 722.274 114.488 721.212 113.759C720.203 113.067 720.065 111.548 720.922 110.66C721.417 110.147 722.169 110.031 722.758 110.423C724.689 111.711 726.617 113.004 728.535 114.317C729.129 114.723 729.383 115.383 729.295 116.176C729.206 116.982 728.788 117.499 728.135 117.764C727.613 117.915 727.144 117.774 726.689 117.457C725.936 116.932 725.169 116.434 724.409 115.925" fill="url(#paint11_linear_163_90)"/>
<path d="M714.693 115.414C714.009 115.868 713.325 116.32 712.641 116.775C712.242 117.04 711.846 117.315 711.444 117.577C710.635 118.104 709.673 117.795 709.214 116.867C708.776 115.981 709.028 114.833 709.807 114.302C711.714 113.005 713.625 111.717 715.543 110.443C716.131 110.052 716.741 110.101 717.285 110.568C717.86 111.061 718.047 111.755 717.919 112.568C717.839 112.765 717.791 112.995 717.671 113.15C717.476 113.403 717.255 113.644 717.008 113.821C716.246 114.37 715.466 114.886 714.693 115.414" fill="url(#paint12_linear_163_90)"/>
<path d="M713.909 115.922C714.587 116.386 715.265 116.851 715.945 117.314C716.342 117.585 716.744 117.847 717.139 118.122C717.935 118.676 718.187 119.801 717.727 120.729C717.288 121.614 716.31 121.934 715.526 121.412C713.609 120.136 711.697 118.85 709.792 117.55C709.208 117.151 708.939 116.51 709.014 115.727C709.093 114.901 709.514 114.364 710.182 114.088C710.368 114.07 710.563 114.003 710.738 114.046C711.023 114.117 711.313 114.22 711.568 114.38C712.356 114.876 713.13 115.406 713.909 115.922" fill="url(#paint13_linear_163_90)"/>
<path fill-rule="evenodd" clip-rule="evenodd" d="M127 175.295C123.134 175.295 120 179.211 120 184.041C120 188.871 123.134 192.788 127 192.788C130.866 192.788 134 188.871 134 184.041C134 179.211 130.866 175.295 127 175.295ZM127.082 189.156C124.825 189.156 122.998 186.868 122.998 184.041C122.998 181.215 124.825 178.926 127.082 178.926C128.184 178.926 129.106 179.434 129.813 180.259L128.661 181.701V181.698C128.233 181.186 127.689 180.924 127.082 180.924C125.734 180.924 124.639 182.35 124.639 184.038C124.639 185.726 125.734 187.156 127.082 187.156C128.304 187.156 129.136 186.28 129.308 185.077H127.082V183.082H130.923C130.974 183.425 131.002 183.782 131.002 184.156C131.002 187.079 129.44 189.156 127.082 189.156V189.156Z" fill="url(#paint14_linear_163_90)"/>
<path d="M31.2117 243.976H33.101V244.913H32.0017V245.851H33.101V246.788H31.2117V243.976ZM33.4785 243.976H35.3685V244.791H34.2692V244.954H35.3685V246.829H33.4785V245.973H34.5777V245.81H33.4785V243.976ZM35.7467 243.976H37.6352V244.791H36.5359V244.954H37.6352V246.829H35.7467V245.973H36.8459V245.81H35.7467V243.976Z" fill="url(#paint15_linear_163_90)"/>
<path fill-rule="evenodd" clip-rule="evenodd" d="M34.4935 264.308L29.4784 262.685L28 248.077H41L39.5223 262.683L34.4935 264.308ZM30.9228 254.69L31.0608 256.481H36.3886L36.2102 258.804L34.4957 259.344H34.4942L32.7826 258.805L32.6728 257.377H31.1294L31.3446 260.19L34.4935 261.209L37.6474 260.19L38.0317 255.17L38.0692 254.69L38.3466 251.063H30.6462L30.7863 252.855H36.6623L36.5222 254.69H30.9228V254.69Z" fill="url(#paint16_linear_163_90)"/>
<path d="M187.501 82.6299H198.501V96.1062H187.501V82.6299ZM187 96.7361H199V82H187V96.7361ZM194.86 87.2521C194.86 87.2019 194.875 87.1765 194.92 87.1765H195.705C195.745 87.1765 195.765 87.1954 195.765 87.2521V92.2208C195.765 92.271 195.755 92.2964 195.705 92.2964H194.931C194.881 92.2964 194.866 92.2651 194.866 92.2144V87.2521H194.86H194.86ZM194.805 85.8228C194.805 85.6524 194.859 85.489 194.955 85.3686C195.05 85.2481 195.18 85.1804 195.315 85.1804C195.45 85.1804 195.58 85.2481 195.676 85.3686C195.771 85.489 195.825 85.6524 195.825 85.8228C195.83 85.9098 195.82 85.9971 195.795 86.0787C195.771 86.1603 195.733 86.2342 195.683 86.2953C195.634 86.3564 195.574 86.4033 195.509 86.4326C195.444 86.4619 195.374 86.473 195.305 86.4651C195.238 86.4704 195.17 86.4574 195.107 86.4268C195.044 86.3962 194.986 86.3488 194.939 86.2879C194.892 86.2269 194.855 86.1538 194.832 86.0736C194.809 85.9933 194.8 85.9078 194.806 85.8228H194.805ZM192.555 89.3243C192.415 88.6226 192.084 87.1015 191.96 86.3647H191.95C191.845 87.1015 191.581 88.3484 191.371 89.3243H192.555ZM191.165 90.3445L190.77 92.2338C190.76 92.284 190.745 92.2969 190.695 92.2969H189.961C189.911 92.2969 189.901 92.278 189.911 92.2025L191.331 85.941C191.365 85.7703 191.382 85.5946 191.381 85.4185C191.381 85.3742 191.396 85.3553 191.421 85.3553H192.471C192.506 85.3553 192.521 85.3677 192.531 85.4185L194.121 92.2133C194.131 92.2635 194.121 92.2953 194.081 92.2953H193.251C193.211 92.2953 193.186 92.2829 193.176 92.2413L192.766 90.3456H191.166L191.165 90.3445Z" fill="url(#paint17_linear_163_90)"/>
<path fill-rule="evenodd" clip-rule="evenodd" d="M82 120.567C82 120.236 82.1107 119.918 82.3077 119.684C82.5047 119.45 82.7719 119.318 83.0505 119.318H93.5224C93.6604 119.318 93.7972 119.35 93.9248 119.413C94.0524 119.475 94.1684 119.567 94.2661 119.683C94.3638 119.799 94.4413 119.937 94.4941 120.089C94.5469 120.24 94.5741 120.403 94.574 120.567V133.014C94.5742 133.178 94.5471 133.341 94.4943 133.492C94.4416 133.644 94.3642 133.782 94.2665 133.898C94.1689 134.014 94.053 134.106 93.9254 134.169C93.7978 134.232 93.661 134.264 93.5229 134.264H83.0505C82.9125 134.264 82.7759 134.232 82.6484 134.169C82.5209 134.106 82.405 134.014 82.3075 133.898C82.2099 133.782 82.1326 133.644 82.0798 133.493C82.027 133.341 81.9999 133.179 82 133.015V120.567ZM86.977 125.017H88.6797V126.033C88.9254 125.449 89.5541 124.923 90.4989 124.923C92.3101 124.923 92.7393 126.087 92.7393 128.222V132.177H90.9064V128.708C90.9064 127.492 90.6606 126.806 90.0365 126.806C89.1706 126.806 88.8105 127.546 88.8105 128.708V132.177H86.977V125.017ZM83.8335 132.084H85.667V124.923H83.8335V132.083V132.084ZM85.9294 122.587C85.9328 122.774 85.9049 122.959 85.8472 123.133C85.7895 123.307 85.7032 123.465 85.5934 123.598C85.4836 123.732 85.3525 123.838 85.2078 123.91C85.063 123.982 84.9076 124.02 84.7506 124.02C84.5935 124.02 84.4381 123.982 84.2934 123.91C84.1486 123.838 84.0175 123.732 83.9077 123.598C83.7979 123.465 83.7116 123.307 83.6539 123.133C83.5962 122.959 83.5683 122.774 83.5718 122.587C83.5785 122.221 83.7057 121.873 83.926 121.616C84.1464 121.36 84.4423 121.217 84.7506 121.217C85.0588 121.217 85.3548 121.36 85.5751 121.616C85.7954 121.873 85.9226 122.221 85.9294 122.587V122.587Z" fill="url(#paint18_linear_163_90)"/>
<path d="M140.754 253.43L142.232 255.826L149.714 253.43M132.979 272.089L137.027 267.516L134.591 264.495M140.14 253.43L137.977 255.682L141.616 255.838M131.731 253.431L132.507 255.271L136.79 255.578M134.023 262.971L137.187 256.153L128 255.577M134.391 263.402L137.38 267.111L140.676 263.379L141.698 256.425L137.682 256.186L134.391 263.402Z" fill="url(#paint19_linear_163_90)"/>
<path d="M583.5 182.5C583.5 205.854 566.999 227.094 540.11 242.524C513.235 257.946 476.074 267.5 435 267.5C393.926 267.5 356.765 257.946 329.89 242.524C303.001 227.094 286.5 205.854 286.5 182.5C286.5 159.146 303.001 137.906 329.89 122.476C356.765 107.054 393.926 97.5 435 97.5C476.074 97.5 513.235 107.054 540.11 122.476C566.999 137.906 583.5 159.146 583.5 182.5Z" stroke="url(#paint20_linear_163_90)"/>
<defs>
<linearGradient id="paint0_linear_163_90" x1="439" y1="0" x2="439" y2="275" gradientUnits="userSpaceOnUse">
<stop offset="0.197917" stop-opacity="0"/>
<stop offset="1" stop-color="#763CAC"/>
</linearGradient>
<linearGradient id="paint1_linear_163_90" x1="440.5" y1="55" x2="440.5" y2="324" gradientUnits="userSpaceOnUse">
<stop stop-opacity="0"/>
<stop offset="0.479167" stop-color="#763CAC"/>
</linearGradient>
<linearGradient id="paint2_linear_163_90" x1="445" y1="55" x2="445" y2="324" gradientUnits="userSpaceOnUse">
<stop stop-opacity="0"/>
<stop offset="0.479167" stop-color="#763CAC"/>
</linearGradient>
<linearGradient id="paint3_linear_163_90" x1="455.5" y1="55" x2="455.5" y2="324" gradientUnits="userSpaceOnUse">
<stop stop-opacity="0"/>
<stop offset="0.479167" stop-color="#763CAC"/>
</linearGradient>
<linearGradient id="paint4_linear_163_90" x1="843.047" y1="133.312" x2="843.047" y2="154.18" gradientUnits="userSpaceOnUse">
<stop stop-color="#693B93" stop-opacity="0.53"/>
<stop offset="1" stop-color="#693B93"/>
</linearGradient>
<linearGradient id="paint5_linear_163_90" x1="843.042" y1="141.565" x2="843.042" y2="145.931" gradientUnits="userSpaceOnUse">
<stop stop-color="#693B93" stop-opacity="0.53"/>
<stop offset="1" stop-color="#693B93"/>
</linearGradient>
<linearGradient id="paint6_linear_163_90" x1="777.5" y1="102.991" x2="777.5" y2="118.152" gradientUnits="userSpaceOnUse">
<stop stop-color="#693B93" stop-opacity="0.53"/>
<stop offset="1" stop-color="#693B93"/>
</linearGradient>
<linearGradient id="paint7_linear_163_90" x1="887" y1="185.791" x2="887" y2="207.948" gradientUnits="userSpaceOnUse">
<stop stop-color="#693B93" stop-opacity="0.53"/>
<stop offset="1" stop-color="#693B93"/>
</linearGradient>
<linearGradient id="paint8_linear_163_90" x1="771.5" y1="273.254" x2="771.5" y2="292.496" gradientUnits="userSpaceOnUse">
<stop stop-color="#693B93" stop-opacity="0.53"/>
<stop offset="1" stop-color="#693B93"/>
</linearGradient>
<linearGradient id="paint9_linear_163_90" x1="832.795" y1="205.615" x2="832.795" y2="221.068" gradientUnits="userSpaceOnUse">
<stop stop-color="#693B93" stop-opacity="0.53"/>
<stop offset="1" stop-color="#693B93"/>
</linearGradient>
<linearGradient id="paint10_linear_163_90" x1="724.832" y1="114.025" x2="724.832" y2="121.671" gradientUnits="userSpaceOnUse">
<stop stop-color="#693B93" stop-opacity="0.53"/>
<stop offset="1" stop-color="#693B93"/>
</linearGradient>
<linearGradient id="paint11_linear_163_90" x1="724.835" y1="110.189" x2="724.835" y2="117.825" gradientUnits="userSpaceOnUse">
<stop stop-color="#693B93" stop-opacity="0.53"/>
<stop offset="1" stop-color="#693B93"/>
</linearGradient>
<linearGradient id="paint12_linear_163_90" x1="713.479" y1="110.181" x2="713.479" y2="117.833" gradientUnits="userSpaceOnUse">
<stop stop-color="#693B93" stop-opacity="0.53"/>
<stop offset="1" stop-color="#693B93"/>
</linearGradient>
<linearGradient id="paint13_linear_163_90" x1="713.479" y1="114.032" x2="713.479" y2="121.664" gradientUnits="userSpaceOnUse">
<stop stop-color="#693B93" stop-opacity="0.53"/>
<stop offset="1" stop-color="#693B93"/>
</linearGradient>
<linearGradient id="paint14_linear_163_90" x1="127" y1="175.295" x2="127" y2="192.788" gradientUnits="userSpaceOnUse">
<stop stop-color="#693B93" stop-opacity="0.53"/>
<stop offset="1" stop-color="#693B93"/>
</linearGradient>
<linearGradient id="paint15_linear_163_90" x1="34.4235" y1="243.976" x2="34.4235" y2="246.829" gradientUnits="userSpaceOnUse">
<stop stop-color="#693B93" stop-opacity="0.53"/>
<stop offset="1" stop-color="#693B93"/>
</linearGradient>
<linearGradient id="paint16_linear_163_90" x1="34.5" y1="248.077" x2="34.5" y2="264.308" gradientUnits="userSpaceOnUse">
<stop stop-color="#693B93" stop-opacity="0.53"/>
<stop offset="1" stop-color="#693B93"/>
</linearGradient>
<linearGradient id="paint17_linear_163_90" x1="193" y1="82" x2="193" y2="96.7361" gradientUnits="userSpaceOnUse">
<stop stop-color="#693B93" stop-opacity="0.53"/>
<stop offset="1" stop-color="#693B93"/>
</linearGradient>
<linearGradient id="paint18_linear_163_90" x1="88.287" y1="119.318" x2="88.287" y2="134.264" gradientUnits="userSpaceOnUse">
<stop stop-color="#693B93" stop-opacity="0.53"/>
<stop offset="1" stop-color="#693B93"/>
</linearGradient>
<linearGradient id="paint19_linear_163_90" x1="138.857" y1="253.43" x2="138.857" y2="272.089" gradientUnits="userSpaceOnUse">
<stop stop-color="#693B93" stop-opacity="0.53"/>
<stop offset="1" stop-color="#693B93"/>
</linearGradient>
<linearGradient id="paint20_linear_163_90" x1="421.868" y1="-155.329" x2="421.868" y2="15.6707" gradientUnits="userSpaceOnUse">
<stop offset="0.197917" stop-opacity="0"/>
<stop offset="1" stop-color="#763CAC"/>
</linearGradient>
</defs>
</svg>
