<svg width="44" height="44" viewBox="0 0 44 44" fill="none" xmlns="http://www.w3.org/2000/svg">
<g clip-path="url(#clip0_156_9)">
<path d="M22 44C34.1503 44 44 34.1503 44 22C44 9.84974 34.1503 0 22 0C9.84974 0 0 9.84974 0 22C0 34.1503 9.84974 44 22 44Z" fill="#251C31"/>
<path d="M10.089 20.9293C9.3095 20.9293 8.5 20.2506 8 19.1743V26.0555C8 26.9847 8.9645 27.7381 10 27.7381C11.035 27.7381 12 26.9847 12 26.0555V19.5332C11.5 20.3978 10.777 20.9293 10.089 20.9293Z" fill="#1CB71C"/>
<path d="M13.5 16.9639V29.5167C13.5 30.4971 14.138 31.2662 15.2315 31.2662H16.659C16.61 31.2662 16.5 31.5988 16.5 31.7621V35.3174C16.5 36.2466 17.4655 37 18.5 37C19.535 37 20.5 36.2466 20.5 35.3174V31.7621C20.5 31.5988 20.307 31.2662 20.2595 31.2662H23.7415C23.694 31.2662 23.5 31.5988 23.5 31.7621V35.3174C23.5 36.2466 24.4635 37 25.498 37C26.535 37 27.5 36.2466 27.5 35.3174V31.7621C27.5 31.5988 27.3905 31.2662 27.3415 31.2662H28.771C29.8645 31.2662 30.5 30.4971 30.5 29.5167V16.9639H13.3855H13.5ZM10 17.1683C8.9645 17.1683 8 17.9222 8 18.8509V26.0551C8 26.9843 8.9645 27.7377 10 27.7377C11.035 27.7377 12 26.9843 12 26.0551V18.8513C12 17.9222 11.035 17.1683 10 17.1683ZM26.3045 10.4255L26.6535 9.95303L27.003 9.48613L27.7815 8.43652C27.8045 8.40604 27.8205 8.37157 27.8286 8.3352C27.8367 8.29883 27.8367 8.26132 27.8286 8.22495C27.8205 8.18858 27.8045 8.1541 27.7815 8.12361C27.7586 8.09313 27.7291 8.06726 27.695 8.0476C27.6263 8.00593 27.5426 7.9908 27.4619 8.00546C27.3812 8.02013 27.31 8.06342 27.2635 8.12603L26.075 9.72373L25.7175 10.2049C24.588 9.81093 23.3295 9.59132 22 9.59132C20.6735 9.59132 19.4125 9.81139 18.283 10.2049L17.9275 9.72419L17.576 9.25222L16.741 8.12695C16.6936 8.06463 16.6219 8.02165 16.5409 8.00703C16.4599 7.99241 16.3759 8.00728 16.3065 8.04852C16.2727 8.06842 16.2435 8.09438 16.2207 8.12487C16.1979 8.15535 16.182 8.18975 16.1739 8.22601C16.1658 8.26228 16.1656 8.29968 16.1735 8.33599C16.1813 8.37231 16.197 8.40681 16.2195 8.43745L16.9975 9.48751L17.347 9.95487L17.698 10.4259C15.046 11.5355 13.2515 13.7344 13.2515 16.0412H30.749C30.749 13.7344 28.955 11.5355 26.3045 10.4255ZM18.2505 13.8013C17.731 13.8013 17.3125 13.4243 17.3125 12.9588C17.3125 12.4933 17.731 12.1182 18.2505 12.1182C18.7685 12.1182 19.188 12.4933 19.188 12.9588C19.188 13.4243 18.769 13.8013 18.2505 13.8013ZM25.7505 13.8013C25.2315 13.8013 24.812 13.4243 24.812 12.9588C24.812 12.4933 25.2315 12.1182 25.7505 12.1182C26.2685 12.1182 26.688 12.4933 26.688 12.9588C26.688 13.4243 26.2685 13.8013 25.7505 13.8013Z" fill="#57C927"/>
<path d="M34 17.1683C32.9645 17.1683 32 17.9221 32 18.8509V26.0551C32 26.9842 32.9645 27.7376 34 27.7376C35.035 27.7376 36 26.9842 36 26.0551V18.8513C36 17.9221 35.035 17.1683 34 17.1683Z" fill="#57C927"/>
<path d="M34.089 20.9293C33.3095 20.9293 32.5 20.2507 32 19.1743V26.0555C32 26.9847 32.9645 27.7381 34 27.7381C35.035 27.7381 36 26.9847 36 26.0555V19.5332C35.5 20.3978 34.777 20.9293 34.089 20.9293ZM22 18.3425C18.045 18.3425 14.5 17.9203 13.5 17.321V29.5167C13.5 30.4971 14.138 31.2662 15.2315 31.2662H16.659C16.61 31.2662 16.5 31.5988 16.5 31.7621V35.3174C16.5 36.2466 17.4655 37 18.5 37C19.535 37 20.5 36.2466 20.5 35.3174V31.7621C20.5 31.5988 20.307 31.2662 20.2595 31.2662H23.7415C23.694 31.2662 23.5 31.5988 23.5 31.7621V35.3174C23.5 36.2466 24.4635 37 25.498 37C26.535 37 27.5 36.2466 27.5 35.3174V31.7621C27.5 31.5988 27.3905 31.2662 27.3415 31.2662H28.771C29.8645 31.2662 30.5 30.4971 30.5 29.5167V17.3205C29.5 17.9199 25.9555 18.3425 22 18.3425ZM26.688 12.9583C26.688 13.4239 26.2685 13.8008 25.7505 13.8008C25.2315 13.8008 24.812 13.4239 24.812 12.9583C24.812 12.706 24.9375 12.4831 25.133 12.329C24.1445 12.1768 23.093 12.0933 22 12.0933C20.907 12.0933 19.856 12.1768 18.867 12.329C19.063 12.4827 19.1885 12.706 19.1885 12.9583C19.1885 13.4239 18.769 13.8008 18.251 13.8008C17.7315 13.8008 17.313 13.4239 17.313 12.9583C17.313 12.8393 17.3415 12.7263 17.391 12.6234C15.892 12.987 14.604 13.5175 13.632 14.1694C13.387 14.7632 13.2515 15.5798 13.2515 16.0412H30.749C30.749 15.5798 30.6135 14.7637 30.369 14.1704C29.3975 13.5175 28.109 12.986 26.611 12.6225C26.66 12.7254 26.688 12.8398 26.688 12.9583Z" fill="#1CB71C"/>
<path d="M22 23.1568C18.6315 23.1568 15.5 22.5436 13.5 21.5388V29.5167C13.5 30.4971 14.138 31.2662 15.2315 31.2662H16.659C16.61 31.2662 16.5 31.5988 16.5 31.7621V35.3174C16.5 36.2466 17.4655 37 18.5 37C19.535 37 20.5 36.2466 20.5 35.3174V31.7621C20.5 31.5988 20.307 31.2662 20.2595 31.2662H23.7415C23.694 31.2662 23.5 31.5988 23.5 31.7621V35.3174C23.5 36.2466 24.4635 37 25.498 37C26.535 37 27.5 36.2466 27.5 35.3174V31.7621C27.5 31.5988 27.3905 31.2662 27.3415 31.2662H28.771C29.8645 31.2662 30.5 30.4971 30.5 29.5167V21.5388C28.5 22.5441 25.3685 23.1568 22 23.1568Z" fill="#049E42"/>
</g>
<defs>
<clipPath id="clip0_156_9">
<rect width="44" height="44" fill="white"/>
</clipPath>
</defs>
</svg>
