<svg width="32" height="34" viewBox="0 0 32 34" fill="none" xmlns="http://www.w3.org/2000/svg">
<path d="M31.9984 9.99601C31.9981 9.42432 31.8688 8.91915 31.6072 8.48558C31.3503 8.05924 30.9656 7.70191 30.4495 7.41937C26.1894 5.09722 21.9252 2.78216 17.6665 0.457635C16.5183 -0.168977 15.4052 -0.146133 14.2655 0.489474C12.5699 1.43484 4.08041 6.03287 1.55066 7.41807C0.508831 7.98822 0.00187807 8.86079 0.00162766 9.99495C0 14.6649 0.00162766 19.3348 0 24.0049C0.000250409 24.5641 0.124078 25.0594 0.374111 25.4865C0.631156 25.9257 1.02129 26.2929 1.54928 26.5818C4.07916 27.967 12.5698 32.5647 14.265 33.5103C15.4052 34.1463 16.5183 34.169 17.6668 33.5421C21.9257 31.2175 26.1901 28.9026 30.4508 26.5804C30.9788 26.2916 31.369 25.9242 31.626 25.4853C31.8757 25.0583 31.9997 24.5629 32 24.0036C32 24.0036 32 14.6661 31.9984 9.99601Z" fill="#5C8DBC"/>
<path d="M16.0487 16.9544L0.37384 25.4865C0.630885 25.9257 1.02102 26.2929 1.54901 26.5818C4.07889 27.967 12.5695 32.5647 14.2648 33.5103C15.4049 34.1462 16.5181 34.169 17.6666 33.5421C21.9254 31.2175 26.1899 28.9025 30.4506 26.5804C30.9786 26.2916 31.3687 25.9242 31.6257 25.4853L16.0487 16.9544Z" fill="#1A4674"/>
<path d="M11.4062 19.4817C12.3184 20.987 14.033 22.0023 16 22.0023C17.9791 22.0023 19.7035 20.9741 20.611 19.4527L16.049 16.9544L11.4062 19.4817Z" fill="#1A4674"/>
<path d="M31.9983 9.99596C31.9981 9.42427 31.8687 8.9191 31.6072 8.48553L16.0489 16.9544L31.6259 25.4853C31.8756 25.0582 31.9997 24.5629 31.9999 24.0036C31.9999 24.0036 31.9999 14.6661 31.9983 9.99596Z" fill="#1B598E"/>
<path d="M31.1419 17.5643H29.9246V18.7153H28.7071V17.5643H27.49V16.4137H28.7071V15.263H29.9246V16.4137H31.1419V17.5643ZM26.7002 17.5643H25.4831V18.7153H24.2659V17.5643H23.0486V16.4137H24.2659V15.263H25.4831V16.4137H26.7002V17.5643Z" fill="white"/>
<path d="M20.611 19.4527C19.7035 20.9742 17.9791 22.0024 16 22.0024C14.033 22.0024 12.3183 20.9871 11.4062 19.4817C10.948 18.7264 10.7074 17.8706 10.7083 16.9999C10.7083 14.2372 13.0776 11.9975 16 11.9975C17.9543 11.9975 19.6599 13.0002 20.5766 14.4901L25.2017 11.9723C23.3634 8.9723 19.9311 6.95398 16 6.95398C10.1309 6.95398 5.37323 11.4518 5.37323 16.9999C5.37323 18.8201 5.88544 20.527 6.78065 21.9993C8.6144 25.0152 12.0564 27.0459 16 27.0459C19.9508 27.0459 23.3982 25.007 25.2293 21.9823L20.611 19.4527Z" fill="white"/>
</svg>
