<svg width="44" height="44" viewBox="0 0 44 44" fill="none" xmlns="http://www.w3.org/2000/svg">
<path d="M22 44C34.1503 44 44 34.1503 44 22C44 9.84974 34.1503 0 22 0C9.84974 0 0 9.84974 0 22C0 34.1503 9.84974 44 22 44Z" fill="#251C31"/>
<path d="M21.9981 7C13.7163 7 7.00001 13.8858 7.00001 22.3802C6.99662 25.6039 7.98535 28.7473 9.82644 31.3659C11.6675 33.9846 14.2679 35.9461 17.26 36.9733C18.01 37.115 18.2838 36.6401 18.2838 36.2323C18.2838 35.8665 18.2706 34.8995 18.2631 33.6166C14.0913 34.5453 13.21 31.5543 13.21 31.5543C12.5294 29.7773 11.545 29.3043 11.545 29.3043C10.1819 28.3507 11.6463 28.3699 11.6463 28.3699C13.1519 28.479 13.9431 29.9554 13.9431 29.9554C15.2819 32.3049 17.455 31.627 18.31 31.2326C18.445 30.2388 18.8331 29.5609 19.2625 29.176C15.9325 28.7873 12.43 27.468 12.43 21.5759C12.43 19.8966 13.015 18.5236 13.975 17.4475C13.8194 17.0588 13.3056 15.4943 14.1213 13.3784C14.1213 13.3784 15.3813 12.9648 18.2463 14.9543C19.4702 14.6127 20.7331 14.4389 22.0019 14.4373C23.2707 14.4399 24.5336 14.6144 25.7575 14.9562C28.6206 12.9667 29.8787 13.3803 29.8787 13.3803C30.6962 15.4982 30.1825 17.0607 30.0287 17.4494C30.9906 18.5256 31.57 19.8985 31.57 21.5778C31.57 27.4852 28.0637 28.7854 24.7225 29.1664C25.2606 29.6413 25.7406 30.5796 25.7406 32.0138C25.7406 34.0704 25.7219 35.7287 25.7219 36.2323C25.7219 36.644 25.9919 37.1227 26.7531 36.9714C29.7423 35.9418 32.3395 33.9795 34.178 31.3614C36.0165 28.7434 37.0036 25.6019 37 22.3802C37 13.8858 30.2837 7 21.9981 7Z" fill="white"/>
</svg>
