<svg width="44" height="44" viewBox="0 0 44 44" fill="none" xmlns="http://www.w3.org/2000/svg">
<g clip-path="url(#clip0_156_9)">
<path d="M22 44C34.1503 44 44 34.1503 44 22C44 9.84974 34.1503 0 22 0C9.84974 0 0 9.84974 0 22C0 34.1503 9.84974 44 22 44Z" fill="#251C31"/>
<path d="M16.6952 27.4272C16.6952 27.4272 15.2971 28.0717 17.6915 28.2891C20.5926 28.5517 22.0752 28.514 25.2714 28.0354C25.2714 28.0354 26.1134 28.4525 27.2871 28.814C20.1196 31.2464 11.0662 28.6729 16.6952 27.4272ZM15.8188 24.2524C15.8188 24.2524 14.2504 25.1722 16.6468 25.3688C19.7459 25.6222 22.1928 25.6429 26.429 24.9971C26.429 24.9971 27.0135 25.4675 27.9341 25.7245C19.2699 27.7318 9.61969 25.8825 15.8188 24.2524Z" fill="#0074BD"/>
<path d="M23.2015 18.866C24.9686 20.4772 22.7381 21.9258 22.7381 21.9258C22.7381 21.9258 27.2221 20.0925 25.1633 17.7957C23.2396 15.6548 21.765 14.5914 29.7488 10.9234C29.7488 10.9236 17.2165 13.4023 23.2015 18.866Z" fill="#EA2D2E"/>
<path d="M32.6809 29.7759C32.6809 29.7759 33.7159 30.452 31.5406 30.9745C27.4048 31.967 14.3231 32.2663 10.6899 31.0143C9.3845 30.564 11.8334 29.9397 12.6039 29.808C13.4072 29.6702 13.8659 29.6953 13.8659 29.6953C12.4132 28.8852 4.47698 31.2868 9.83528 31.9756C24.447 33.8519 36.4705 31.1306 32.6809 29.7759ZM17.3683 20.9626C17.3683 20.9626 10.7148 22.2146 15.0123 22.6697C16.8272 22.8621 20.4434 22.818 23.8141 22.594C26.568 22.4107 29.3316 22.0192 29.3316 22.0192C29.3316 22.0192 28.3614 22.3489 27.6587 22.7285C20.9009 24.1367 7.84916 23.4808 11.607 22.0413C14.7839 20.8241 17.3683 20.9626 17.3683 20.9626ZM29.3041 26.2474C36.1731 23.4206 32.9968 20.704 30.7799 21.0699C30.2379 21.1594 29.9947 21.2372 29.9947 21.2372C29.9947 21.2372 30.1965 20.9865 30.5813 20.8787C34.9668 19.6578 38.339 24.4805 29.1668 26.3907C29.1668 26.3902 29.2721 26.3147 29.3041 26.2474Z" fill="#0074BD"/>
<path d="M25.1632 5C25.1632 5 28.9665 8.01469 21.5549 12.6489C15.6112 16.3676 20.1996 18.4873 21.5528 20.9103C18.083 18.4306 15.5379 16.2475 17.2451 14.2158C19.7521 11.2341 26.6973 9.78782 25.1632 5Z" fill="#EA2D2E"/>
<path d="M18.0431 33.9089C24.635 34.2427 34.7604 33.723 35 31.252C35 31.252 34.5392 32.1887 29.5516 32.9319C23.9247 33.7711 16.9832 33.6733 12.8676 33.135C12.8676 33.1352 13.7107 33.6881 18.0431 33.9089Z" fill="#0074BD"/>
</g>
<defs>
<clipPath id="clip0_156_9">
<rect width="44" height="44" fill="white"/>
</clipPath>
</defs>
</svg>
