<svg width="31" height="31" viewBox="0 0 31 31" fill="none" xmlns="http://www.w3.org/2000/svg">
<path d="M25.575 0H5.425C2.42886 0 0 2.51008 0 5.60641V25.3623C0 28.4587 2.42886 30.9688 5.425 30.9688H25.575C28.5711 30.9688 31 28.4587 31 25.3623V5.60641C31 2.51008 28.5711 0 25.575 0Z" fill="#001E36"/>
<path d="M17.4375 12.2807H19.6333C19.6862 12.2789 19.7382 12.2953 19.781 12.3275C19.8239 12.3597 19.8551 12.4057 19.8697 12.4582C20.0342 12.8218 20.1294 13.2148 20.15 13.6156C20.9792 12.5076 21.9997 12.0137 23.3585 12.0137C23.379 12.01 23.4 12.0114 23.4199 12.0178C23.4397 12.0243 23.4578 12.0356 23.4725 12.0508C23.4872 12.066 23.4982 12.0846 23.5044 12.1051C23.5106 12.1256 23.512 12.1474 23.5083 12.1686V14.5259C23.5083 14.6447 23.4515 14.6955 23.3365 14.6808C22.0927 14.6074 21.1058 14.7756 20.3915 15.5137C20.3197 15.576 20.2611 15.653 20.2195 15.7398C20.1779 15.8267 20.1542 15.9215 20.15 16.0183V22.8047C20.15 22.9075 20.0932 22.9596 19.9782 22.9596H17.7591C17.63 22.9596 17.5667 22.9009 17.5667 22.7821V15.2174C17.5667 13.426 17.4375 13.1711 17.3083 12.4356C17.2941 12.3328 17.3367 12.2807 17.4375 12.2807ZM15.6963 22.9596H7.688C7.55883 22.9596 7.49037 22.8835 7.49037 22.7327V8.72464C7.48686 8.69985 7.48902 8.67454 7.49669 8.65076C7.50436 8.62698 7.51732 8.6054 7.53454 8.58774C7.55175 8.57008 7.57273 8.55684 7.59579 8.54909C7.61886 8.54134 7.64336 8.53929 7.66733 8.5431H9.94583C10.0337 8.5431 10.075 8.5965 10.075 8.70195V20.8238H16.1135C16.2427 20.8238 16.2957 20.8852 16.2672 21.0054L15.9159 22.778C15.9079 22.8312 15.881 22.8794 15.8403 22.913C15.7997 22.9466 15.7483 22.9632 15.6963 22.9596Z" fill="#31A8FF"/>
</svg>
