<svg width="44" height="44" viewBox="0 0 44 44" fill="none" xmlns="http://www.w3.org/2000/svg">
<g clip-path="url(#clip0_156_9)">
<path d="M22 44C34.1503 44 44 34.1503 44 22C44 9.84974 34.1503 0 22 0C9.84974 0 0 9.84974 0 22C0 34.1503 9.84974 44 22 44Z" fill="#251C31"/>
<path d="M4.00028 27.9497H5.15981V22.1557L6.95498 27.2068C7.16668 27.8182 7.45656 28.0343 8.02531 28.0343C8.59407 28.0343 8.87294 27.8182 9.08464 27.2068L10.8798 22.1557V27.9497H12.0393V22.1654C12.0393 21.6011 11.8609 21.3279 11.4929 21.1871C10.6119 20.8393 10.0209 21.1404 9.75331 21.8929L7.99172 26.8779L6.28603 21.8925C6.02945 21.1404 5.42739 20.8393 4.54646 21.1868C4.17839 21.3279 4 21.6007 4 22.165L4.00028 27.9497ZM13.0038 23.2332H14.1631V26.4254C14.1523 26.5986 14.2071 27.0057 14.8422 27.0186C15.1662 27.025 17.3436 27.0186 17.3639 27.0186V23.2175H18.526C18.5313 23.2175 18.5248 28.4011 18.5248 28.4225C18.531 29.7011 17.2713 29.9786 16.6904 30H13.0289V29.0129C13.0352 29.0129 16.6879 29.0139 16.6969 29.0125C17.4435 28.9129 17.3551 28.4436 17.3549 28.2857V27.9007H14.8904C13.7439 27.8875 13.0134 27.2543 13.0041 26.5257C13.0035 26.4589 13.0292 23.2654 13.0038 23.2332Z" fill="#00618A"/>
<path d="M19.4199 27.9496H22.7539C23.1443 27.9496 23.5236 27.8464 23.8245 27.6678C24.3261 27.3764 24.5714 26.9814 24.5714 26.4635V25.3914C24.5714 24.9682 24.2928 24.5728 23.7463 24.3099C23.4565 24.1685 23.0994 24.0939 22.7536 24.0939H21.3485C20.8803 24.0939 20.6573 23.9153 20.6017 23.5203C20.5907 23.4732 20.5907 23.4357 20.5907 23.3885V22.7207C20.5907 22.6832 20.5907 22.6453 20.6017 22.5985C20.6573 22.2974 20.7801 22.2128 21.1927 22.1657L21.3042 22.1564H24.616V21.1785H21.3601C20.8918 21.1785 20.6466 21.216 20.4236 21.3007C19.7323 21.5735 19.4309 22.006 19.4309 22.7585V23.6142C19.4309 24.2728 20.0222 24.8371 21.0143 24.9689C21.1261 24.9778 21.2373 24.9878 21.3488 24.9878H22.5532C22.5978 24.9878 22.6424 24.9878 22.676 24.9967C23.0441 25.0342 23.1999 25.1192 23.3117 25.2882C23.3786 25.3728 23.4006 25.4578 23.4006 25.5514V26.4075C23.4006 26.5107 23.345 26.6425 23.2335 26.7553C23.1333 26.8682 22.9659 26.9435 22.7429 26.9625L22.6201 26.9717H19.4199V27.9496ZM31.8057 26.2475C31.8057 27.2535 32.3968 27.8178 33.5896 27.931C33.7011 27.9403 33.8126 27.9496 33.9241 27.9496H36.946V26.9717H33.9021C33.2218 26.9717 32.9655 26.7553 32.9655 26.2378V21.1778H31.806L31.8057 26.2475ZM25.3115 26.2982V22.8107C25.3115 21.9249 25.8032 21.3874 26.7753 21.2178C26.8758 21.1989 26.9878 21.1896 27.088 21.1896H29.2894C29.4011 21.1896 29.5016 21.1989 29.6131 21.2178C30.5852 21.3874 31.0772 21.9246 31.0772 22.8107V26.2982C31.0772 27.0175 30.8683 27.4017 30.3871 27.6525L31.5297 28.9571H30.183L29.2589 27.9014L28.3286 27.976H27.088C26.8758 27.976 26.6525 27.9385 26.4066 27.8535C25.6691 27.5992 25.3115 27.1089 25.3115 26.2982ZM26.563 26.2135C26.563 26.2607 26.574 26.3082 26.5853 26.3646C26.6522 26.77 26.9542 26.996 27.4121 26.996H28.4655L27.4979 25.8907H28.8445L29.6882 26.855C29.844 26.7496 29.9462 26.5896 29.982 26.3835C29.993 26.3364 29.993 26.2892 29.993 26.2421V22.8964C29.993 22.8589 29.993 22.8114 29.982 22.7642C29.9149 22.3871 29.6131 22.1707 29.1663 22.1707H27.4118C26.8981 22.1707 26.5627 22.4535 26.5627 22.8964L26.563 26.2135Z" fill="#E48E00"/>
<path d="M37.9661 19.5546C37.2534 19.53 36.7089 19.6139 36.2432 19.8621C36.1108 19.9328 35.9 19.9346 35.8785 20.1442C35.951 20.241 35.9623 20.385 36.0202 20.5035C36.1314 20.731 36.3191 21.036 36.4865 21.1957C36.6691 21.3703 36.8577 21.5575 37.0541 21.7089C37.4027 21.9782 37.7922 22.1317 38.1284 22.401C38.3263 22.5603 38.5227 22.7603 38.7161 22.94C38.8118 23.0282 38.8755 23.1664 39 23.2218V23.1964C38.9348 23.0914 38.9179 22.9471 38.858 22.8371L38.5944 22.5035C38.3367 22.0707 38.0099 21.691 37.6618 21.3753C37.3846 21.1235 36.7642 20.7832 36.6485 20.375L36.6282 20.3496C36.8246 20.3214 37.055 20.2314 37.2362 20.17C37.541 20.0664 37.8134 20.0932 38.1281 19.9903L38.5538 19.836V19.7339C38.3949 19.5275 38.2811 19.2539 38.1078 19.0671C37.6542 18.5782 37.1586 18.0896 36.6485 17.6817C36.3657 17.456 36.016 17.3092 35.7159 17.1178C35.6154 17.0532 35.4382 17.0199 35.3713 16.9124C35.2135 16.6585 35.128 16.3367 35.0063 16.0407C34.7523 15.421 34.5022 14.7439 34.2767 14.0914C34.1231 13.6467 34.0226 13.2082 33.831 12.8092C32.9105 10.8946 31.9198 9.73886 30.3852 8.60314C30.0586 8.36135 29.6654 8.26635 29.2502 8.14171L28.5812 8.09028C28.4455 8.0185 28.3038 7.80778 28.1759 7.70564C27.6673 7.29921 26.3632 6.41528 25.9867 7.57778C25.749 8.31135 26.3423 9.02707 26.5543 9.39886C26.7031 9.65957 26.8939 9.95171 27.0003 10.2449C27.0703 10.4378 27.0821 10.631 27.1423 10.8349C27.2893 11.3371 27.4178 11.8839 27.6083 12.3478C27.7045 12.5828 27.8109 12.8303 27.9326 13.0403C28.0071 13.1689 28.1353 13.226 28.1553 13.4249C28.0303 13.6464 28.0229 13.9907 27.9526 14.271C27.6359 15.5349 27.7553 17.106 28.2163 18.0414C28.3577 18.3289 28.6907 18.9446 29.1486 18.7082C29.5491 18.5017 29.4599 17.8621 29.5745 17.2974C29.6005 17.1699 29.5844 17.0757 29.6352 16.9899V17.0157L30.0002 17.9389C30.2703 18.4892 30.7493 19.0639 31.1554 19.4521C31.366 19.6532 31.532 20.0014 31.8041 20.1189V20.0928H31.784C31.731 19.9889 31.6488 19.946 31.5811 19.8621C31.4225 19.6653 31.246 19.421 31.1151 19.1953C30.7456 18.561 30.4193 17.8664 30.1218 17.1435C29.9798 16.7985 29.8565 16.4178 29.7368 16.0664C29.6905 15.931 29.6911 15.726 29.5951 15.6564C29.4636 15.9135 29.2708 16.1217 29.1692 16.4257C29.0072 16.9114 28.9863 17.5039 28.9262 18.1182L28.8855 18.1435C28.603 18.0575 28.5039 17.6896 28.3989 17.3742C28.1336 16.5767 28.0842 15.2921 28.3179 14.3739C28.3783 14.136 28.6512 13.3878 28.5406 13.1682C28.4878 12.9492 28.3136 12.8228 28.2165 12.6549C28.096 12.4481 27.9755 12.176 27.8922 11.9367C27.6749 11.3149 27.5736 10.6167 27.3452 9.98779C27.2357 9.68707 27.0511 9.38314 26.8992 9.116C26.7313 8.81957 26.543 8.60171 26.4126 8.24385C26.3663 8.11671 26.3034 7.91278 26.372 7.78207C26.3937 7.69385 26.425 7.65707 26.4939 7.62814C26.6113 7.51349 26.9388 7.66635 27.0613 7.73064C27.3864 7.90171 27.6577 8.06421 27.9332 8.29492C28.0653 8.406 28.1988 8.62028 28.3588 8.67957H28.5411C28.8265 8.76243 29.1463 8.70493 29.4128 8.80743C29.8841 8.98886 30.3064 9.27064 30.6897 9.57707C31.858 10.5106 32.8129 11.8392 33.4666 13.4242C33.5716 13.6796 33.6173 13.9228 33.7096 14.1935C33.8965 14.7392 34.1319 15.301 34.3176 15.8349C34.5031 16.3674 34.684 16.9049 34.9462 17.3482C35.0839 17.581 35.6163 17.706 35.8582 17.8353C36.0278 17.926 36.3056 18.0207 36.4662 18.1428C36.773 18.3771 37.0705 18.656 37.3581 18.9125C37.5018 19.0417 37.9441 19.3228 37.9661 19.5546ZM28.9058 9.7835C28.7574 9.77993 28.6521 9.80421 28.5409 9.83493V9.86029H28.5612C28.632 10.0449 28.7571 10.1635 28.8449 10.3221L29.0478 10.8606L29.0678 10.8353C29.1935 10.7235 29.2508 10.5446 29.2502 10.271C29.1997 10.2039 29.1923 10.1199 29.1489 10.0403C29.0913 9.93314 28.9789 9.87314 28.9058 9.7835Z" fill="#00618A"/>
</g>
<defs>
<clipPath id="clip0_156_9">
<rect width="44" height="44" fill="white"/>
</clipPath>
</defs>
</svg>
