<?xml version="1.0" standalone="no"?>
<!DOCTYPE svg PUBLIC "-//W3C//DTD SVG 20010904//EN"
 "http://www.w3.org/TR/2001/REC-SVG-20010904/DTD/svg10.dtd">
<svg version="1.0" xmlns="http://www.w3.org/2000/svg"
 width="300.000000pt" height="200.000000pt" viewBox="0 0 300.000000 200.000000"
 preserveAspectRatio="xMidYMid meet">
<metadata>
Created by potrace 1.10, written by Peter Selinger 2001-2011
</metadata>
<g transform="translate(0.000000,200.000000) scale(0.100000,-0.100000)"
fill="#000000" stroke="none">
<path d="M1514 1373 c13 -21 59 -98 101 -172 67 -116 76 -137 66 -154 -7 -10
-10 -21 -7 -24 3 -3 11 6 17 20 11 24 5 39 -76 179 -110 191 -108 188 -118
188 -4 0 4 -17 17 -37z"/>
<path d="M1396 1242 c-47 -82 -88 -155 -91 -163 -5 -13 161 -319 187 -344 15
-14 -5 24 -82 155 -112 192 -107 170 -65 243 19 34 49 85 65 112 41 68 81 145
76 145 -2 0 -43 -67 -90 -148z"/>
<path d="M1460 1148 c-19 -35 -37 -66 -39 -71 -4 -11 39 -96 53 -104 5 -4 -2
15 -17 42 -15 26 -27 51 -27 55 0 12 63 120 70 120 3 0 34 -49 69 -110 34 -60
66 -110 71 -110 5 0 14 10 20 23 11 21 11 22 -5 2 -11 -14 -18 -16 -23 -8 -4
6 -34 59 -67 117 -33 58 -62 106 -65 106 -3 0 -21 -28 -40 -62z"/>
<path d="M1132 782 c-56 -97 -102 -183 -102 -190 0 -8 18 -12 54 -12 59 0 70
9 110 88 27 52 10 37 -24 -23 l-31 -55 -51 0 c-43 0 -49 2 -43 17 7 21 184
325 194 336 4 4 19 -13 32 -38 18 -34 21 -49 13 -62 -35 -58 -75 -133 -71
-133 8 0 87 138 87 151 0 16 -49 99 -58 99 -5 0 -54 -80 -110 -178z"/>
<path d="M1493 935 c8 -16 56 -101 105 -187 l91 -158 -184 0 -185 0 -30 53
c-32 55 -41 58 -14 4 35 -69 29 -67 230 -67 101 0 185 3 188 8 2 4 -42 88 -99
186 -97 166 -138 231 -102 161z"/>
<path d="M1725 917 c-30 -53 -31 -57 -4 -101 29 -49 34 -45 8 6 l-22 42 23 44
c19 34 26 40 35 30 14 -15 195 -333 195 -342 0 -3 -22 -6 -50 -6 l-50 0 -31
55 c-33 59 -50 76 -23 23 40 -79 51 -88 110 -88 35 0 54 4 54 12 0 17 -202
368 -212 368 -4 0 -19 -20 -33 -43z"/>
<path d="M51 642 c-1 -63 0 -68 20 -69 20 -2 21 -1 3 18 -15 17 -16 19 -1 14
12 -5 16 -1 14 20 -1 14 -9 30 -17 35 -13 9 -13 10 0 10 9 0 16 9 16 20 0 12
-7 20 -17 20 -13 0 -16 -12 -18 -68z"/>
<path d="M54 518 c0 -24 5 -46 11 -50 7 -5 7 -8 0 -8 -6 0 -12 -11 -13 -25 -1
-16 3 -25 13 -25 18 0 28 17 15 25 -6 4 -7 13 -1 23 14 26 14 34 -1 44 -9 7
-10 11 -2 14 15 6 6 44 -10 44 -8 0 -12 -16 -12 -42z"/>
<path d="M59 358 c0 -2 -2 -20 -4 -40 -2 -31 1 -38 16 -38 12 0 17 7 16 20 -1
11 -4 20 -8 20 -4 0 -5 9 -2 20 3 11 0 20 -6 20 -6 0 -11 -1 -12 -2z"/>
<path d="M53 245 c0 -19 2 -23 12 -15 9 8 15 7 18 -2 4 -8 6 -7 6 5 1 9 -5 17
-11 17 -9 0 -8 4 2 10 12 8 11 10 -6 10 -16 0 -21 -6 -21 -25z"/>
<path d="M59 205 c-7 -7 -2 -146 6 -153 12 -13 24 22 12 37 -7 8 -7 12 -1 8 7
-4 10 14 11 54 0 40 -4 59 -12 59 -6 0 -14 -2 -16 -5z"/>
</g>
</svg>
