<svg width="102" height="102" viewBox="0 0 102 102" fill="none" xmlns="http://www.w3.org/2000/svg">
<g filter="url(#filter0_d_163_18)">
<path d="M10.1256 37.0673C12.0373 31.4238 15.1865 26.2435 19.3417 21.8533C20.0443 21.1109 21.1467 20.8463 22.1336 21.1832L32.0637 24.5723C34.7559 25.4907 37.7182 24.1519 38.6803 21.5821C38.7749 21.3294 38.8478 21.0698 38.8981 20.8062L40.7899 10.8942C40.978 9.9087 41.771 9.12913 42.7975 8.92053C45.8009 8.31034 48.8802 8 52 8C55.1178 8 58.1954 8.30999 61.197 8.91941C62.2232 9.1278 63.0161 9.90688 63.2046 10.892L65.1018 20.8058C65.6147 23.4904 68.3101 25.2699 71.123 24.7803C71.3999 24.7322 71.6716 24.6626 71.936 24.5724L81.8663 21.1832C82.8531 20.8463 83.9553 21.1109 84.658 21.8533C88.8134 26.2435 91.9623 31.4238 93.8746 37.0673C94.1967 38.0193 93.8856 39.0631 93.0865 39.7107L85.0378 46.2335C82.8589 47.9998 82.5923 51.118 84.4425 53.1982C84.6244 53.4028 84.8238 53.5928 85.0378 53.7664L93.0865 60.2893C93.8856 60.9368 94.1967 61.9806 93.8746 62.9327C91.9623 68.5765 88.8134 73.7568 84.658 78.1466C83.9553 78.8888 82.8531 79.1535 81.8663 78.8167L71.936 75.4276C69.2444 74.5096 66.2817 75.8484 65.3197 78.4176C65.2251 78.6703 65.1522 78.9301 65.1016 79.1948L63.2046 89.108C63.0161 90.0933 62.2232 90.8719 61.197 91.0806C58.1954 91.6898 55.1178 92 52 92C48.8802 92 45.8009 91.6898 42.7975 91.0792C41.771 90.8705 40.978 90.0912 40.7899 89.1059L38.8982 79.1941C38.3853 76.5094 35.6895 74.7301 32.877 75.2196C32.6004 75.2679 32.3284 75.3372 32.0642 75.4276L22.1336 78.8167C21.1467 79.1535 20.0443 78.8888 19.3417 78.1466C15.1865 73.7568 12.0373 68.5765 10.1256 62.9327C9.80316 61.9806 10.1141 60.9368 10.9133 60.2893L18.9619 53.7665C21.1412 52.0001 21.4077 48.8819 19.5573 46.8017C19.3754 46.5972 19.1762 46.4071 18.962 46.2335L10.9133 39.7107C10.1141 39.0631 9.80316 38.0193 10.1256 37.0673ZM39.2165 49.9995C39.2165 56.7673 44.9395 62.2536 51.9991 62.2536C59.0588 62.2536 64.7817 56.7673 64.7817 49.9995C64.7817 43.2318 59.0588 37.7454 51.9991 37.7454C44.9395 37.7454 39.2165 43.2318 39.2165 49.9995Z" fill="white"/>
</g>
<defs>
<filter id="filter0_d_163_18" x="0" y="0" width="102" height="102" filterUnits="userSpaceOnUse" color-interpolation-filters="sRGB">
<feFlood flood-opacity="0" result="BackgroundImageFix"/>
<feColorMatrix in="SourceAlpha" type="matrix" values="0 0 0 0 0 0 0 0 0 0 0 0 0 0 0 0 0 0 127 0" result="hardAlpha"/>
<feOffset dx="-1" dy="1"/>
<feGaussianBlur stdDeviation="4.5"/>
<feComposite in2="hardAlpha" operator="out"/>
<feColorMatrix type="matrix" values="0 0 0 0 0.410915 0 0 0 0 0.23 0 0 0 0 0.575 0 0 0 1 0"/>
<feBlend mode="normal" in2="BackgroundImageFix" result="effect1_dropShadow_163_18"/>
<feBlend mode="normal" in="SourceGraphic" in2="effect1_dropShadow_163_18" result="shape"/>
</filter>
</defs>
</svg>
